<?xml version="1.0" encoding="UTF-8"?>
<!DOCTYPE svg PUBLIC "-//W3C//DTD SVG 1.1//EN" "http://www.w3.org/Graphics/SVG/1.1/DTD/svg11.dtd">
<!-- Creator: CorelDRAW 2021.5 -->
<svg xmlns="http://www.w3.org/2000/svg" xml:space="preserve" width="8.5in" height="11in" version="1.1" style="shape-rendering:geometricPrecision; text-rendering:geometricPrecision; image-rendering:optimizeQuality; fill-rule:evenodd; clip-rule:evenodd"
viewBox="0 0 8500 11000"
 xmlns:xlink="http://www.w3.org/1999/xlink"
 xmlns:xodm="http://www.corel.com/coreldraw/odm/2003">
 <defs>
  <style type="text/css">
   <![CDATA[
    .fil1 {fill:#FEFEFE}
    .fil0 {fill:#E62129}
   ]]>
  </style>
 </defs>
 <g id="Layer_x0020_1">
  <metadata id="CorelCorpID_0Corel-Layer"/>
  <g id="_3031103065872">
   <path class="fil0" d="M55304.89 18603.29c-347.43,0 -480.84,-159.66 -663.27,232.69 -160.76,345.74 -108.78,261.94 -451.52,434.02 -329.87,165.61 -187.48,317.72 -187.48,635.56 0,124.93 -76.11,209.19 -132.47,284.26 -193.98,258.35 -207.07,330.03 1.43,596.89 235.39,301.27 110.2,304.54 110.2,650.32 0,74.59 27.3,134.55 64.78,174.83 178.09,191.37 429.04,110.07 554.31,414.57 73.35,178.28 143.94,379.48 349.79,379.48 331.63,0 337.69,-124.62 638.47,101.21 312.31,234.48 358.68,175.64 659.3,-43.2 29.89,-21.76 27.22,-22.58 63.29,-40.89 199.39,-101.26 289.29,-17.12 514.2,-17.12 336.28,0 266.91,-407.67 508.76,-574.72 26.68,-18.43 50.35,-27.85 81.52,-43.5 141.93,-71.28 389.02,-119.83 389.02,-350.66 0,-279.79 -119.56,-381.4 101.7,-648.4 198.69,-239.76 198.69,-359.54 0,-599.3 -220.92,-266.58 -101.7,-369.54 -101.7,-637.98 0,-303.19 -359.93,-294.67 -523.76,-445.13 -153.22,-140.72 -152.93,-534.17 -445.13,-534.17 -224.65,0 -327.56,81.89 -517.63,-13.69 -44.31,-22.28 -94.3,-57.79 -130.77,-88.01 -482.34,-399.72 -542.44,132.96 -883.06,132.96z"/>
   <path class="fil1" d="M56496.03 20836l-339.4 -338.27 351.3 -351.3c79.19,-101.03 118.38,-218.06 23.76,-318.36 -139.43,-131.64 -281.05,25.71 -333.95,69.22l-147.94 171.29 -161.87 161.33 -161.87 -161.33 -147.94 -171.29c-52.9,-43.51 -194.52,-200.87 -333.95,-69.22 -94.62,100.3 -55.43,217.33 23.76,318.36l351.3 351.3 -339.4 338.27c-63.77,77.3 -143.24,172.15 -44.49,305.19 114.16,89.07 204.28,69.44 261.69,16.13l390.9 -390.9 390.9 390.9c57.41,53.31 147.53,72.94 261.69,-16.13 98.75,-133.04 19.28,-227.89 -44.49,-305.19z"/>
  </g>
 </g>
</svg>
