<?xml version="1.0" encoding="UTF-8"?>
<!DOCTYPE svg PUBLIC "-//W3C//DTD SVG 1.1//EN" "http://www.w3.org/Graphics/SVG/1.1/DTD/svg11.dtd">
<!-- Creator: CorelDRAW 2021.5 -->
<svg xmlns="http://www.w3.org/2000/svg" xml:space="preserve" width="8.5in" height="11in" version="1.1" style="shape-rendering:geometricPrecision; text-rendering:geometricPrecision; image-rendering:optimizeQuality; fill-rule:evenodd; clip-rule:evenodd"
viewBox="0 0 8500 11000"
 xmlns:xlink="http://www.w3.org/1999/xlink"
 xmlns:xodm="http://www.corel.com/coreldraw/odm/2003">
 <defs>
  <style type="text/css">
   <![CDATA[
    .fil1 {fill:#FEFEFE}
    .fil0 {fill:#109138}
   ]]>
  </style>
 </defs>
 <g id="Layer_x0020_1">
  <metadata id="CorelCorpID_0Corel-Layer"/>
  <g id="_3031391616000">
   <path class="fil0" d="M55001.52 13223.77c-347.43,0 -480.84,-159.66 -663.27,232.69 -160.76,345.74 -108.78,261.94 -451.52,434.02 -329.87,165.61 -187.48,317.72 -187.48,635.56 0,124.93 -76.11,209.19 -132.47,284.26 -193.98,258.35 -207.07,330.03 1.43,596.89 235.39,301.27 110.2,304.54 110.2,650.32 0,74.59 27.3,134.55 64.78,174.83 178.09,191.37 429.04,110.07 554.31,414.57 73.35,178.28 143.94,379.48 349.79,379.48 331.63,0 337.69,-124.62 638.47,101.21 312.31,234.48 358.68,175.64 659.3,-43.2 29.89,-21.76 27.22,-22.58 63.29,-40.89 199.39,-101.26 289.29,-17.12 514.2,-17.12 336.28,0 266.91,-407.67 508.76,-574.72 26.68,-18.43 50.35,-27.85 81.52,-43.5 141.93,-71.28 389.02,-119.83 389.02,-350.66 0,-279.79 -119.56,-381.4 101.7,-648.4 198.69,-239.76 198.69,-359.54 0,-599.3 -220.92,-266.58 -101.7,-369.54 -101.7,-637.98 0,-303.19 -359.93,-294.67 -523.76,-445.13 -153.22,-140.72 -152.93,-534.17 -445.13,-534.17 -224.65,0 -327.56,81.89 -517.63,-13.69 -44.31,-22.28 -94.3,-57.79 -130.77,-88.01 -482.34,-399.72 -542.44,132.96 -883.06,132.96z"/>
   <path class="fil1" d="M55178.43 15607.58l-406.2 -444.54c-57.66,-69.44 -72.04,-141.28 17.52,-231.04 95.92,-64.85 169.59,-47.26 258.17,18.81l387.11 422.26 644.33 -588.87 142.21 -150.43c50.12,-37.58 185.98,-175.53 307.97,-49.52 82.33,95.53 41.7,200.85 -34.8,289.91l-965.17 882.09c-54.65,46.35 -137.79,60.59 -238.44,-25.49l-112.71 -123.17z"/>
  </g>
 </g>
</svg>
